<?xml version="1.0" encoding="UTF-8"?>
<svg id="Layer_1" xmlns="http://www.w3.org/2000/svg" version="1.1" viewBox="0 0 1000 474">
  <!-- Generator: Adobe Illustrator 29.5.0, SVG Export Plug-In . SVG Version: 2.1.0 Build 137)  -->
  <defs>
    <style>
      .st0 {
        fill: #1e2322;
      }
    </style>
  </defs>
  <g>
    <g>
      <path class="st0" d="M956,153.6c-.6,20.1-6.9,39.8-17.8,56.8l-3,4.5c-1,1.5-2.1,2.9-3.2,4.3-1.1,1.3-2.1,2.6-3.2,3.9-16.6,18.9-40,31.8-64.9,35.2-25.1,3.4-51.2-3-72.2-17.1-21.2-14.1-36.5-36-43.7-60.3-2.2-7.4-3.6-15-4.2-22.8-2.9-38.4,15.6-78.1,47.6-99.6,2.8-1.9,26.5-17.1,56.5-17.5,14.1-.2,26.1,2.9,27.7,3.3,3.3.9,11.4,3.2,20.9,8.1,2.7,1.4,4.8,2.6,6.4,3.6l-19.5,23.7c-1.7-.9-4.2-2.2-7.2-3.4-18.7-7.4-46.4-8.1-69.3,7.6-16.5,11.3-26.6,29.1-30.3,48.5-4.7,24.7,2.2,49.9,18.5,69,5.9,6.8,12.9,12.8,20.7,17.3,22.2,12.7,51.4,12.1,73.4-.9,14.6-8.7,25.6-22.8,31.8-38.5,4-10.1,5.8-21.1,5.4-32-.4-10.6-3-21.2-7.7-30.7-2.7-5.5-6.3-10.7-10.4-15.3,6.7-8,13.4-16,20.1-24.1,4.9,5.6,15.7,19.4,21.6,36.2,4.3,12.3,5.4,24.6,5.7,29.8.3,5.1.2,9,.2,10.2v.2h.1Z"/>
      <polygon class="st0" points="231.7 258.2 191.5 258.2 110.4 155.1 76.7 188.7 76.7 258.2 44 258.2 44 42.2 76.7 42.2 76.7 148.7 180.9 42.2 224.2 42.2 132.2 133.7 231.7 258.2"/>
      <path class="st0" d="M382,172.1c6.4-1.9,12.9-4.6,19.3-8,8.4-4.4,15.4-11,20.9-19.5,5.6-8.6,8.4-20.2,8.4-34.4,0-21.1-6.9-38.2-20.4-50.7-13.5-12.5-31.7-18.8-54.1-18.8h-104.4v217.7h31.3v-80.7h67.2l50.8,80.7h37.3l-56.2-86.3h0ZM351.9,147.6h-69v-77h70.2c14.1,0,25.4,3.6,33.8,10.7,8.2,7,12.3,16.6,12.3,28.7s-2.4,17.5-7.1,22.7c-2,2.2-4.2,4.2-6.5,5.8-1.7,1.2-5.2,3.5-11.6,5.6-4.5,1.5-12.1,3.4-22.1,3.5h0Z"/>
      <rect class="st0" x="468.7" y="41.6" width="31.6" height="215.8"/>
      <path class="st0" d="M695.8,76.4c-8.7-10.5-20.3-19-34.6-25.3-14.3-6.2-30.4-9.4-48-9.4h-76.6v215.8h76.6c14.1,0,27.4-2.1,39.5-6.2,22.2-7.6,39.8-21.6,52.3-41.5,11.5-18,17.3-38.3,17.3-60.2s-8.9-52.1-26.6-73.2h0ZM609.9,227.6h-41.7V71.5h41.7c24.4,0,44.3,7.3,59,21.6,14.7,14.3,22.1,33.3,22.1,56.5s-7.4,42.2-22.1,56.5c-14.7,14.3-34.5,21.6-59,21.6h0Z"/>
    </g>
    <g>
      <path class="st0" d="M258.9,432.7h-10l-19.8-69.8h9.6l15.3,59.1,16.5-59.1h10.1l16.4,59,15.3-59h9.5l-19.7,69.8h-10l-16.5-56.3-16.4,56.3h-.3Z"/>
      <path class="st0" d="M382.7,370.7h-37.3v22.7h28v7.7h-28v23.8h37.3v7.8h-46.3v-69.8h46.3v7.8Z"/>
      <path class="st0" d="M409.8,362.9v62h32.3v7.8h-41.3v-69.8h9Z"/>
      <path class="st0" d="M465.9,362.9v62h32.3v7.8h-41.3v-69.8h9Z"/>
      <path class="st0" d="M567.1,362.9v69.8h-9.2l-36-55.4v55.4h-9v-69.8h9.2l36,55.3v-55.3h9Z"/>
      <path class="st0" d="M633.6,370.7h-37.3v22.7h28v7.7h-28v23.8h37.3v7.8h-46.3v-69.8h46.3v7.8Z"/>
      <path class="st0" d="M694.2,404.9c-1.3-2.2-2.9-4.1-5-5.6s-4.4-2.8-7.1-3.8c-2.6-1-5.3-1.9-8-2.8-2.9-.9-5.5-1.7-7.8-2.6s-4.2-2.1-5.6-3.5c-1.4-1.5-2.1-3.4-2.1-5.9s.6-4.2,1.8-5.8c1.2-1.6,2.8-2.9,4.9-3.8,2.1-.9,4.3-1.3,6.9-1.2,3.4,0,6,.9,6.8,1.3.9.4,2.9,1.2,5,3,1.1.9,1.9,1.8,2.5,2.5,2.1-1.6,4.2-3.2,6.3-4.8-.8-1.2-1.6-2.3-2.6-3.3-2-2.1-4.5-3.6-7.5-4.7s-6.4-1.6-10.4-1.6-8.6.8-12,2.3-6.1,3.8-8,6.7c-1.9,2.9-2.8,6.4-2.8,10.4s.6,6,1.8,8.2,2.9,4,5,5.3c2.1,1.4,4.4,2.5,7,3.4s5.2,1.7,7.9,2.4c3,.9,5.7,1.8,8.1,2.9,2.4,1.1,4.3,2.4,5.6,4,1.4,1.6,2.1,3.7,2.1,6.2s-1.2,5.8-3.5,8c-1.8,1.8-4.2,2.7-6.6,3.1-3.8.7-6.8.4-8,.2-.9-.2-4.2-.9-7.4-3.1-1.3-.9-2.4-1.9-3.4-2.9-1.3-1.2-2.3-2.3-3.1-3.1-1.9,1.9-3.7,3.9-5.6,5.8.8,1,1.9,2.3,3.4,3.6,1.4,1.2,4.1,3.9,8.4,5.5,3.4,1.3,7.3,2,11.6,2s9.6-.9,13-2.8c3.4-1.8,6-4.3,7.7-7.3,1.7-3.1,2.5-6.4,2.5-10.1s-.6-6.1-1.9-8.3v.2h0Z"/>
      <path class="st0" d="M754.1,404.9c-1.3-2.2-2.9-4.1-5-5.6s-4.4-2.8-7.1-3.8c-2.6-1-5.3-1.9-8-2.8-2.9-.9-5.5-1.7-7.8-2.6s-4.2-2.1-5.6-3.5c-1.4-1.5-2.1-3.4-2.1-5.9s.6-4.2,1.8-5.8c1.2-1.6,2.8-2.9,4.9-3.8,2.1-.9,4.3-1.3,6.9-1.2,3.4,0,6,.9,6.8,1.3.9.4,2.9,1.2,5,3,1.1.9,1.9,1.8,2.5,2.5,2.1-1.6,4.2-3.2,6.3-4.8-.8-1.2-1.6-2.3-2.6-3.3-2-2.1-4.5-3.6-7.5-4.7s-6.4-1.6-10.4-1.6-8.6.8-12,2.3-6.1,3.8-8,6.7c-1.9,2.9-2.8,6.4-2.8,10.4s.6,6,1.8,8.2,2.9,4,5,5.3c2.1,1.4,4.4,2.5,7,3.4s5.2,1.7,7.9,2.4c3,.9,5.7,1.8,8.1,2.9,2.4,1.1,4.3,2.4,5.6,4,1.4,1.6,2.1,3.7,2.1,6.2s-1.2,5.8-3.5,8c-1.8,1.8-4.2,2.7-6.6,3.1-3.8.7-6.8.4-8,.2-.9-.2-4.2-.9-7.4-3.1-1.3-.9-2.4-1.9-3.4-2.9-1.3-1.2-2.3-2.3-3.1-3.1-1.9,1.9-3.7,3.9-5.6,5.8.8,1,1.9,2.3,3.4,3.6,1.4,1.2,4.1,3.9,8.4,5.5,3.4,1.3,7.3,2,11.6,2s9.6-.9,13-2.8c3.4-1.8,6-4.3,7.7-7.3,1.7-3.1,2.5-6.4,2.5-10.1s-.6-6.1-1.9-8.3v.2h0Z"/>
      <path class="st0" d="M363.8,350.5v1c0-.7-.3-1-.9-1h.9Z"/>
    </g>
  </g>
  <path class="st0" d="M925.6,76.6"/>
</svg>